<?xml version="1.0" standalone="no"?>
<!DOCTYPE svg PUBLIC "-//W3C//DTD SVG 20010904//EN"
 "http://www.w3.org/TR/2001/REC-SVG-20010904/DTD/svg10.dtd">
<svg version="1.0" xmlns="http://www.w3.org/2000/svg"
 width="546.000000pt" height="525.000000pt" viewBox="0 0 546.000000 525.000000"
 preserveAspectRatio="xMidYMid meet">

<g transform="translate(0.000000,525.000000) scale(0.100000,-0.100000)"
fill="#000000" stroke="none">
<path d="M2635 5203 c-291 -35 -535 -123 -758 -275 -89 -61 -305 -264 -359
-338 l-25 -35 -399 28 c-235 16 -480 28 -595 27 l-196 0 -24 -26 -24 -26 0
-448 0 -448 24 -26 24 -26 216 0 c119 0 302 7 406 14 105 8 332 24 505 36 340
23 407 34 482 80 46 29 54 30 161 30 138 0 181 11 230 60 l38 38 212 36 c265
45 254 43 277 66 18 18 20 34 20 140 0 106 -2 122 -20 140 -24 24 -15 22 -280
65 -118 20 -218 41 -222 48 -22 34 220 77 437 77 174 0 267 -10 409 -46 328
-83 608 -260 792 -503 77 -102 165 -275 194 -384 l22 -79 -21 -481 c-12 -265
-22 -504 -23 -532 l-2 -50 44 -7 c85 -13 234 -9 291 8 145 43 242 134 288 272
19 55 21 85 21 300 0 214 -2 245 -20 298 -11 32 -31 75 -44 94 -65 98 -183
174 -291 188 l-60 7 -6 150 c-7 167 -17 237 -54 373 -183 681 -834 1171 -1540
1161 -55 -1 -113 -4 -130 -6z m50 -384 l0 -204 -94 -10 -93 -11 -90 179 c-49
99 -87 181 -85 183 17 17 318 76 352 69 6 -1 10 -78 10 -206z m278 196 c60 -7
244 -48 253 -57 4 -5 -120 -266 -160 -338 l-15 -26 -93 11 -93 10 -3 195 c-1
107 0 200 3 207 2 8 14 12 27 9 13 -3 49 -8 81 -11z m-722 -286 c44 -89 78
-164 74 -167 -7 -8 -204 -72 -220 -72 -7 0 -61 50 -119 111 l-108 111 59 43
c59 44 211 135 225 135 5 0 44 -72 89 -161z m1248 106 c106 -62 171 -111 171
-128 0 -7 -47 -59 -106 -118 l-105 -105 -110 36 c-60 20 -112 39 -115 42 -7 7
153 328 164 328 4 0 50 -25 101 -55z m-1707 -272 c15 -15 28 -30 28 -33 0 -4
-25 -2 -55 3 l-55 10 22 24 c12 13 24 23 27 23 3 0 18 -12 33 -27z m2063 -25
c54 -60 135 -171 135 -185 0 -5 -25 -33 -55 -63 -41 -41 -59 -52 -69 -45 -43
31 -229 154 -239 158 -11 4 159 187 174 187 4 0 28 -24 54 -52z m-2685 -128
c305 -22 571 -42 591 -45 20 -4 50 -15 68 -26 l31 -19 -2 -212 -3 -213 -45
-22 c-40 -20 -90 -25 -480 -53 -239 -16 -463 -33 -497 -36 l-63 -6 0 206 0
206 -85 0 -85 0 -2 -207 -3 -208 -80 0 -80 0 -3 325 c-1 179 0 330 3 337 7 21
138 16 735 -27z m1020 -300 l0 -170 -80 0 -80 0 0 170 0 170 80 0 80 0 0 -170z
m1956 -98 c13 -47 23 -87 21 -89 -2 -1 -18 17 -36 42 -17 24 -54 70 -81 102
l-49 58 37 38 37 38 23 -52 c13 -29 34 -90 48 -137z m-1601 137 c134 -21 167
-31 152 -45 -9 -9 -325 -62 -332 -56 -8 8 -6 118 2 125 4 4 14 5 22 3 9 -3 79
-15 156 -27z m1949 -828 c26 -14 59 -39 72 -56 50 -66 54 -89 54 -330 0 -253
-4 -272 -68 -339 -50 -52 -104 -76 -175 -76 l-58 0 6 73 c3 39 12 225 21 411
8 187 17 343 20 347 8 13 77 -3 128 -30z"/>
<path d="M1139 3520 c-107 -10 -190 -52 -267 -134 -39 -42 -68 -85 -84 -123
-22 -56 -23 -68 -23 -328 l0 -270 32 -67 c72 -153 220 -248 384 -248 32 0 59
-3 59 -7 0 -46 46 -284 65 -340 3 -9 22 -7 72 8 37 10 73 21 79 23 7 3 4 36
-12 105 -34 155 -40 224 -69 806 -15 297 -28 550 -31 563 -4 20 -10 22 -67 21
-34 -1 -96 -5 -138 -9z m62 -481 c10 -173 20 -360 23 -416 l6 -103 -58 0 c-70
0 -124 24 -174 76 -64 67 -68 86 -68 338 0 235 3 254 47 319 39 56 148 113
198 102 6 -1 17 -128 26 -316z"/>
<path d="M1879 3426 c-36 -8 -90 -24 -120 -37 -63 -26 -176 -97 -201 -126 -17
-18 -15 -21 40 -75 l57 -57 73 49 c99 67 161 85 292 84 124 -1 196 -23 299
-93 l63 -43 54 58 53 59 -39 36 c-130 119 -385 184 -571 145z"/>
<path d="M3411 3430 c-119 -25 -255 -88 -321 -149 l-39 -36 54 -59 54 -58 68
45 c94 62 171 88 273 94 129 8 247 -29 344 -106 l40 -32 58 58 c55 55 57 58
40 76 -36 41 -162 114 -242 141 -92 30 -249 43 -329 26z"/>
<path d="M2690 2640 l0 -460 80 0 80 0 0 460 0 460 -80 0 -80 0 0 -460z"/>
<path d="M1964 2930 c-42 -13 -101 -80 -110 -125 -15 -82 20 -154 90 -186 52
-23 90 -23 142 0 113 51 128 219 25 286 -42 28 -103 38 -147 25z"/>
<path d="M3329 2840 c-117 -21 -159 -32 -159 -43 1 -29 38 -141 48 -145 5 -1
47 4 92 12 106 21 323 21 427 1 43 -8 83 -15 90 -15 10 0 28 48 48 131 6 25 4
26 -72 44 -87 20 -393 30 -474 15z"/>
<path d="M3482 2334 c-30 -21 -118 -153 -152 -228 -41 -92 -55 -161 -53 -271
1 -140 32 -231 123 -370 47 -70 79 -109 97 -116 23 -8 93 10 460 121 l434 130
423 0 423 0 24 26 c23 25 24 31 27 203 4 199 -5 243 -53 261 -16 6 -192 10
-445 10 l-418 0 -417 125 c-229 69 -424 125 -433 125 -10 0 -28 -7 -40 -16z
m230 -269 c5 -33 15 -77 23 -98 20 -50 19 -86 -6 -168 -20 -65 -23 -155 -8
-208 3 -11 -19 -22 -79 -40 -96 -29 -88 -33 -147 84 -80 161 -69 323 34 483
l32 50 72 -22 72 -22 7 -59z m368 -54 l195 -59 3 -105 3 -106 -73 -21 c-40
-12 -124 -37 -187 -56 -62 -19 -120 -34 -127 -34 -21 0 -18 83 6 158 29 91 26
127 -15 260 -4 12 -5 22 -3 22 2 0 92 -26 198 -59z m1038 -163 l-3 -83 -332
-3 -333 -2 0 85 0 85 335 0 336 0 -3 -82z"/>
<path d="M2352 1844 l-31 -75 33 -14 c163 -69 457 -94 634 -55 48 11 53 14 48
34 -3 11 -11 47 -18 79 -12 55 -14 58 -38 52 -14 -3 -88 -8 -165 -12 -150 -6
-255 7 -370 47 -32 11 -59 20 -60 20 -2 0 -16 -34 -33 -76z"/>
<path d="M1260 1825 c-84 -24 -92 -24 -510 -25 -321 0 -431 -3 -450 -13 -44
-22 -52 -70 -48 -304 3 -208 3 -212 27 -237 l24 -26 423 0 c388 0 430 -2 506
-20 75 -18 118 -20 451 -20 399 0 395 -1 449 57 44 46 48 72 48 280 0 189 -1
198 -24 237 -14 24 -42 52 -68 66 l-43 25 -350 2 c-343 2 -352 2 -435 -22z
m335 -315 l0 -165 -112 -3 c-85 -2 -127 2 -170 15 -49 14 -120 18 -473 22
l-415 6 -3 123 -3 122 383 0 c376 0 384 1 463 25 69 20 98 24 205 22 l125 -2
0 -165z m419 154 c12 -31 7 -299 -6 -312 -8 -8 -50 -12 -124 -12 -93 0 -113 3
-118 16 -8 21 -8 309 1 317 3 4 59 7 124 7 97 0 118 -3 123 -16z"/>
<path d="M3605 1237 c-184 -190 -438 -352 -640 -408 -103 -29 -277 -31 -375
-5 -135 37 -318 132 -455 236 l-66 51 -69 -32 -70 -32 0 -195 c0 -206 -15
-343 -51 -474 -35 -125 -35 -153 -6 -182 l26 -26 871 0 871 0 24 25 c32 31 31
49 -4 187 -39 151 -51 260 -51 459 l0 166 98 97 97 97 -60 54 c-33 30 -62 55
-65 55 -3 -1 -36 -33 -75 -73z m-1287 -485 c297 -152 577 -158 869 -18 61 30
143 74 181 99 l69 45 6 -152 c4 -83 14 -189 22 -236 9 -47 19 -100 22 -118 l6
-32 -722 0 c-396 0 -721 3 -721 8 0 4 9 57 21 117 11 61 23 178 26 261 l6 152
59 -39 c33 -21 103 -60 156 -87z"/>
</g>
</svg>
