<?xml version="1.0" encoding="utf-8"?>
<!-- Generator: Adobe Illustrator 15.0.0, SVG Export Plug-In . SVG Version: 6.00 Build 0)  -->
<!DOCTYPE svg PUBLIC "-//W3C//DTD SVG 1.1//EN" "http://www.w3.org/Graphics/SVG/1.1/DTD/svg11.dtd">
<svg version="1.1" id="Capa_1" xmlns="http://www.w3.org/2000/svg" xmlns:xlink="http://www.w3.org/1999/xlink" x="0px" y="0px"
	 width="497px" height="640px" viewBox="0 0 497 640" enable-background="new 0 0 497 640" xml:space="preserve">
<g>
	<path fill="#5284bd" d="M479.708,502.541c0.148-0.189,0.296-0.38,0.431-0.58c0.036-0.054,0.064-0.111,0.101-0.166
		c0.138-0.213,0.272-0.431,0.393-0.656c0.021-0.039,0.037-0.082,0.059-0.122c0.125-0.243,0.245-0.487,0.351-0.74
		c0.013-0.028,0.021-0.06,0.031-0.087c0.106-0.266,0.207-0.534,0.29-0.812c0.011-0.032,0.016-0.067,0.026-0.1
		c0.079-0.271,0.149-0.545,0.207-0.823c0.016-0.079,0.021-0.159,0.036-0.238c0.041-0.234,0.081-0.469,0.104-0.71
		c0.033-0.322,0.05-0.647,0.05-0.975V27.766c0-5.395-4.373-9.766-9.767-9.766H22.785c-5.392,0-9.765,4.371-9.765,9.766v592.468
		c0,5.395,4.373,9.766,9.766,9.766h325.532c0.327,0,0.652-0.017,0.976-0.05c0.242-0.024,0.479-0.064,0.716-0.106
		c0.075-0.013,0.153-0.02,0.23-0.034c0.278-0.056,0.551-0.129,0.82-0.204c0.034-0.012,0.069-0.019,0.104-0.027
		c0.271-0.082,0.533-0.18,0.793-0.284c0.035-0.015,0.07-0.024,0.105-0.038c0.246-0.103,0.481-0.219,0.719-0.34
		c0.048-0.025,0.099-0.045,0.146-0.071c0.215-0.114,0.421-0.243,0.625-0.374c0.064-0.04,0.133-0.076,0.195-0.119
		c0.19-0.128,0.371-0.268,0.552-0.407c0.071-0.057,0.146-0.105,0.218-0.162c0.22-0.183,0.43-0.374,0.633-0.572
		c0.022-0.024,0.051-0.043,0.074-0.067L478.927,503.44c0.02-0.02,0.034-0.04,0.055-0.06c0.204-0.209,0.4-0.422,0.587-0.648
		C479.617,502.669,479.66,502.604,479.708,502.541z M32.552,37.532h429.703v449.233H348.318c-5.394,0-9.766,4.371-9.766,9.768
		v113.936h-306V37.532L32.552,37.532z M448.444,506.298l-90.36,90.36v-90.36H448.444z"/>
	<path fill="#5284bd" d="M206.663,141.702h187.229c5.394,0,9.766-4.371,9.766-9.766s-4.372-9.766-9.766-9.766H206.663
		c-5.393,0-9.766,4.371-9.766,9.766S201.271,141.702,206.663,141.702z"/>
	<path fill="#5284bd" d="M120.051,164.885c1.906,1.906,4.406,2.859,6.905,2.859c2.499,0,4.999-0.953,6.905-2.859l52.085-52.085
		c3.814-3.815,3.814-9.998,0-13.812c-3.814-3.813-9.998-3.813-13.811,0l-45.18,45.18l-12.627-12.627
		c-3.814-3.813-9.998-3.813-13.81,0c-3.814,3.815-3.814,9.998,0,13.812L120.051,164.885z"/>
	<path fill="#5284bd" d="M182.297,223.085c0,5.395,4.373,9.766,9.766,9.766h201.83c5.394,0,9.766-4.371,9.766-9.766
		s-4.372-9.766-9.766-9.766h-201.83C186.669,213.319,182.297,217.69,182.297,223.085z"/>
	<path fill="#5284bd" d="M153,187.276h-52.085c-5.394,0-9.766,4.372-9.766,9.766v52.085c0,5.395,4.373,9.766,9.766,9.766H153
		c5.394,0,9.766-4.371,9.766-9.766v-52.085C162.765,191.648,158.392,187.276,153,187.276z M143.233,239.362H110.68v-32.553h32.553
		V239.362L143.233,239.362z"/>
	<path fill="#5284bd" d="M393.893,304.468H192.063c-5.394,0-9.766,4.371-9.766,9.767c0,5.395,4.373,9.766,9.766,9.766h201.83
		c5.394,0,9.766-4.371,9.766-9.766C403.658,308.839,399.286,304.468,393.893,304.468z"/>
	<path fill="#5284bd" d="M153,278.426h-52.085c-5.394,0-9.766,4.371-9.766,9.766v52.086c0,5.395,4.373,9.767,9.766,9.767H153
		c5.394,0,9.766-4.372,9.766-9.767v-52.086C162.765,282.797,158.392,278.426,153,278.426z M143.233,330.511H110.68v-32.553h32.553
		V330.511L143.233,330.511z"/>
	<path fill="#5284bd" d="M393.893,395.617H192.063c-5.394,0-9.766,4.371-9.766,9.766c0,5.396,4.373,9.768,9.766,9.768h201.83
		c5.394,0,9.766-4.372,9.766-9.768C403.659,399.988,399.286,395.617,393.893,395.617z"/>
	<path fill="#5284bd" d="M153,369.574h-52.085c-5.394,0-9.766,4.371-9.766,9.767v52.085c0,5.396,4.373,9.767,9.766,9.767H153
		c5.394,0,9.766-4.371,9.766-9.767v-52.085C162.765,373.945,158.392,369.574,153,369.574z M143.233,421.659H110.68v-32.553h32.553
		V421.659L143.233,421.659z"/>
	<path fill="#5284bd" d="M309.255,486.766H192.063c-5.394,0-9.766,4.371-9.766,9.768c0,5.395,4.373,9.766,9.766,9.766h117.191
		c5.394,0,9.767-4.371,9.767-9.766C319.021,491.137,314.647,486.766,309.255,486.766z"/>
	<path fill="#5284bd" d="M153,460.724h-52.085c-5.394,0-9.766,4.371-9.766,9.767v52.085c0,5.395,4.373,9.767,9.766,9.767H153
		c5.394,0,9.766-4.372,9.766-9.767V470.49C162.765,465.095,158.392,460.724,153,460.724z M143.233,512.809H110.68v-32.554h32.553
		V512.809L143.233,512.809z"/>
</g>
</svg>
